<svg width="48" height="44" viewBox="0 0 48 44" fill="none" xmlns="http://www.w3.org/2000/svg">
<path d="M25.6972 10C26.2174 10 26.6903 10.0648 27.1274 10.2018C27.5848 10.3451 27.9979 10.5662 28.3709 10.8673C28.7272 11.1549 29.0435 11.5125 29.332 11.9453L29.5978 12.3425L29.7318 12.5315C29.8286 12.6613 29.8937 12.729 29.9671 12.7898C30.0537 12.8613 30.1403 12.9077 30.2479 12.94C30.3756 12.9784 30.5057 12.9955 30.8249 12.9992L31.0431 13.0009C32.2355 13.0524 32.9143 13.2163 33.6299 13.599C34.3909 14.006 34.994 14.6091 35.401 15.3701C35.8456 16.2015 36 17.001 36 18.615V24.5903C36 26.7733 35.7973 27.823 35.214 28.9137C34.685 29.9028 33.9028 30.685 32.9137 31.214C31.823 31.7973 30.7733 32 28.5903 32H19.4097C17.2267 32 16.177 31.7973 15.0863 31.214C14.0972 30.685 13.315 29.9028 12.786 28.9137C12.2334 27.8804 12.0224 26.8839 12.0017 24.9257V18.3217C12.0204 16.9009 12.1822 16.1495 12.599 15.3701C13.006 14.6091 13.6091 14.006 14.3701 13.599C15.061 13.2295 15.7167 13.0652 16.8213 13.016L16.9097 13.0041L17 13L17.1751 12.9992C17.4943 12.9955 17.6244 12.9784 17.7521 12.94C17.8597 12.9077 17.9463 12.8613 18.0329 12.7898C18.1357 12.7047 18.2221 12.606 18.4022 12.3425L18.6679 11.9453C18.9565 11.5125 19.2728 11.1549 19.6291 10.8673C20.0021 10.5662 20.4152 10.3451 20.8726 10.2018C21.3097 10.0648 21.7826 10 22.3028 10H25.6972ZM25.6972 12H22.3028C21.9761 12 21.7032 12.0374 21.4706 12.1103C21.2528 12.1785 21.063 12.2801 20.8854 12.4235C20.6958 12.5765 20.5133 12.7829 20.332 13.0547L20.0283 13.5071C19.7573 13.8987 19.5625 14.1201 19.3072 14.3312C19.015 14.5728 18.6909 14.7462 18.3278 14.8554C17.9887 14.9573 17.6782 14.9951 17.1412 14.9995L17.0874 15.0058L16.8175 15.0183C16.0651 15.0567 15.7083 15.1514 15.3133 15.3627C14.9009 15.5832 14.5832 15.9009 14.3627 16.3133C14.0942 16.8153 14 17.3029 14 18.615V24.5903C14 26.4714 14.1425 27.2092 14.5496 27.9705C14.8922 28.6111 15.3889 29.1078 16.0295 29.4504C16.7107 29.8147 17.373 29.9671 18.8523 29.9951L19.4097 30H28.5903L29.1477 29.9951C30.627 29.9671 31.2893 29.8147 31.9705 29.4504C32.6111 29.1078 33.1078 28.6111 33.4504 27.9705C33.8147 27.2893 33.9671 26.627 33.9951 25.1477L34 24.5903V18.615L33.9954 18.16C33.9737 17.1808 33.8723 16.7526 33.6373 16.3133C33.4168 15.9009 33.0991 15.5832 32.6867 15.3627C32.2559 15.1322 31.8671 15.0383 31 15L30.7578 14.9983C30.2817 14.9899 29.9895 14.9507 29.6722 14.8554C29.3091 14.7462 28.985 14.5728 28.6928 14.3312C28.4375 14.1201 28.2427 13.8987 27.9717 13.5071L27.6679 13.0547C27.4867 12.7829 27.3042 12.5765 27.1146 12.4235C26.937 12.2801 26.7472 12.1785 26.5294 12.1103C26.2968 12.0374 26.0239 12 25.6972 12ZM24 16.5C26.8997 16.5 29.25 18.8503 29.25 21.75C29.25 24.6497 26.8997 27 24 27C21.1003 27 18.75 24.6497 18.75 21.75C18.75 18.8503 21.1003 16.5 24 16.5ZM24 18.5C22.2048 18.5 20.75 19.9548 20.75 21.75C20.75 23.5452 22.2048 25 24 25C25.7952 25 27.25 23.5452 27.25 21.75C27.25 19.9548 25.7952 18.5 24 18.5Z" fill="#3F8AE0"/>
</svg>
