<svg width="44" height="44" viewBox="0 0 44 44" fill="none" xmlns="http://www.w3.org/2000/svg">
<rect width="44" height="44" rx="10" fill="#F2F3F5"/>
<path d="M18.0771 13C18.7457 13 18.9882 13.0696 19.2326 13.2003C19.4771 13.3311 19.6689 13.5229 19.7997 13.7674C19.9304 14.0118 20 14.2543 20 14.9229V29.0771C20 29.7457 19.9304 29.9882 19.7997 30.2326C19.6689 30.4771 19.4771 30.6689 19.2326 30.7997C18.9882 30.9304 18.7457 31 18.0771 31H15.9229C15.2543 31 15.0118 30.9304 14.7674 30.7997C14.5229 30.6689 14.3311 30.4771 14.2003 30.2326C14.0696 29.9882 14 29.7457 14 29.0771V14.9229C14 14.2543 14.0696 14.0118 14.2003 13.7674C14.3311 13.5229 14.5229 13.3311 14.7674 13.2003C15.0118 13.0696 15.2543 13 15.9229 13H18.0771ZM27.0771 13C27.7457 13 27.9882 13.0696 28.2326 13.2003C28.4771 13.3311 28.6689 13.5229 28.7997 13.7674C28.9304 14.0118 29 14.2543 29 14.9229V29.0771C29 29.7457 28.9304 29.9882 28.7997 30.2326C28.6689 30.4771 28.4771 30.6689 28.2326 30.7997C27.9882 30.9304 27.7457 31 27.0771 31H24.9229C24.2543 31 24.0118 30.9304 23.7674 30.7997C23.5229 30.6689 23.3311 30.4771 23.2003 30.2326C23.0696 29.9882 23 29.7457 23 29.0771V14.9229C23 14.2543 23.0696 14.0118 23.2003 13.7674C23.3311 13.5229 23.5229 13.3311 23.7674 13.2003C24.0118 13.0696 24.2543 13 24.9229 13H27.0771Z" fill="#3F8AE0"/>
</svg>
