<svg width="32" height="32" viewBox="0 0 32 32" fill="none" xmlns="http://www.w3.org/2000/svg">
<path d="M11.6121 3.42834L20.6308 3.4291C22.7609 3.44267 23.877 3.64221 24.9565 4.17011L25.1962 4.29288C26.2768 4.87079 27.13 5.72397 27.7079 6.80456C28.3066 7.92404 28.5408 9.00493 28.5694 11.1374L28.5724 11.6109V20.3887L28.5694 20.8621C28.5408 22.9946 28.3066 24.0755 27.7079 25.195C27.13 26.2756 26.2768 27.1288 25.1962 27.7067C24.0767 28.3054 22.9958 28.5396 20.8633 28.5682L20.3899 28.5712H11.6121L11.1386 28.5682C9.00615 28.5396 7.92526 28.3054 6.80578 27.7067C5.72519 27.1288 4.87201 26.2756 4.2941 25.195C3.6954 24.0755 3.46117 22.9946 3.4326 20.8621L3.42957 20.3887L3.43032 11.37C3.4439 9.23987 3.64343 8.1238 4.17133 7.04425L4.2941 6.80456C4.87201 5.72397 5.72519 4.87079 6.80578 4.29288C7.92526 3.69418 9.00615 3.45995 11.1386 3.43138L11.6121 3.42834ZM19.1312 16.0263L13.8549 22.3237C13.5741 22.6588 13.0905 22.7258 12.7315 22.4924L12.6614 22.4417L9.74893 20.1035L5.67075 24.1167C5.7128 24.2072 5.75776 24.2967 5.80578 24.3865C6.22392 25.1684 6.83239 25.7768 7.61423 26.195C8.47024 26.6528 9.30066 26.8326 11.1905 26.8546L11.6121 26.8569H20.3899L20.8115 26.8546C22.7013 26.8326 23.5318 26.6528 24.3878 26.195C25.1696 25.7768 25.7781 25.1684 26.1962 24.3865C26.4462 23.9191 26.6133 23.4593 26.7171 22.8305L19.1312 16.0263ZM20.3899 5.14263H11.6121L11.1905 5.14496C9.30066 5.16691 8.47024 5.34677 7.61423 5.80456C6.83239 6.2227 6.22392 6.83117 5.80578 7.61301C5.31529 8.53016 5.14385 9.41794 5.14385 11.6109V20.3887L5.14618 20.8103C5.15229 21.3362 5.17063 21.7802 5.20379 22.1654L9.09082 18.3473C9.38003 18.0633 9.82486 18.023 10.1583 18.24L10.2279 18.2904L13.0798 20.5795L18.3844 14.2493C18.6764 13.9007 19.1852 13.8441 19.5451 14.1062L19.6108 14.1591L26.8564 20.6535L26.8581 20.3887V11.6109L26.8558 11.1893C26.8339 9.29944 26.654 8.46902 26.1962 7.61301C25.7781 6.83117 25.1696 6.2227 24.3878 5.80456C23.4706 5.31407 22.5828 5.14263 20.3899 5.14263ZM11.1439 9.71406C11.9328 9.71406 12.5724 10.3537 12.5724 11.1426C12.5724 11.9316 11.9328 12.5712 11.1439 12.5712C10.3549 12.5712 9.71528 11.9316 9.71528 11.1426C9.71528 10.3537 10.3549 9.71406 11.1439 9.71406Z" fill="#3F8AE0"/>
</svg>
