<svg width="375" height="44" viewBox="0 0 375 44" fill="none" xmlns="http://www.w3.org/2000/svg">
<g clip-path="url(#clip0)">
<path d="M317 17.5C321.2 17.5 324 21.5 324 22.5C324 23.5 321.2 27.5 317 27.5C312.8 27.5 310 23.5 310 22.5C310 21.5 312.8 17.5 317 17.5ZM317 19C315.067 19 313.5 20.567 313.5 22.5C313.5 24.433 315.067 26 317 26C318.933 26 320.5 24.433 320.5 22.5C320.5 20.567 318.933 19 317 19ZM317 21C317.828 21 318.5 21.6716 318.5 22.5C318.5 23.3284 317.828 24 317 24C316.172 24 315.5 23.3284 315.5 22.5C315.5 21.6716 316.172 21 317 21Z" fill="#B8C1CC"/>
<path d="M333.123 27.5H334.415L338.804 18.7773V17.6357H332.275V18.7363H337.553V18.832L333.123 27.5ZM339.586 30.0088L340.66 26.1191H339.354L338.704 30.0088H339.586ZM342.502 20.418H343.691C343.691 19.249 344.477 18.4766 345.66 18.4766C346.822 18.4766 347.526 19.2559 347.526 20.3018C347.526 21.1699 347.157 21.6826 345.899 23.043L342.563 26.6523V27.5H348.948V26.3926H344.272V26.2832L346.514 23.9658C348.292 22.127 348.784 21.3066 348.784 20.1719C348.784 18.5723 347.465 17.4033 345.742 17.4033C343.855 17.4033 342.502 18.6611 342.502 20.418ZM352.26 27.5V24.0547L353.442 22.749L357.004 27.5H358.597L354.29 21.8945L358.234 17.6357H356.689L352.369 22.4277H352.26V17.6357H351.029V27.5H352.26Z" fill="#99A2AD"/>
<path d="M27.9918 14.006C26.5405 14.0698 25.2389 14.6433 24.111 15.6995L23.994 15.813L23.8723 15.695C22.6626 14.5761 21.2746 14 19.7344 14C16.5772 14 14 16.5603 14 19.7172C14 22.8046 15.1273 24.2688 20.1824 28.263L22.8704 30.3607C23.5345 30.8783 24.4655 30.8783 25.1296 30.3607L27.4937 28.5182L28.4269 27.7784C32.9647 24.144 34 22.676 34 19.7172C34 16.5603 31.4228 14 28.2656 14L27.9918 14.006ZM28.2656 15.8C30.4314 15.8 32.2 17.557 32.2 19.7172L32.1951 20.0108C32.1192 22.1674 31.1332 23.352 26.686 26.8631L24.0231 28.941C24.0095 28.9515 23.9905 28.9515 23.9769 28.941L21.6128 27.0984L20.739 26.4066C16.5968 23.0977 15.8 21.9668 15.8 19.7172C15.8 17.557 17.5686 15.8 19.7344 15.8C21.0673 15.8 22.2408 16.4176 23.3038 17.7152C23.6662 18.1577 24.3441 18.1543 24.702 17.7081C25.7389 16.4156 26.9087 15.8 28.2656 15.8Z" fill="#99A2AD"/>
<path d="M44.71 27.2324C46.8018 27.2324 48.2852 25.8037 48.2852 23.8008C48.2852 21.9004 46.918 20.5127 45.0449 20.5127C43.876 20.5127 42.9258 21.0596 42.4541 22.0098H42.3379C42.3652 19.5078 43.2676 18.1885 44.8057 18.1885C45.7354 18.1885 46.4121 18.667 46.6035 19.501H48.1416C47.8955 17.9355 46.624 16.8965 44.7715 16.8965C42.3721 16.8965 40.8682 18.8516 40.8682 22.2012C40.8682 25.5576 42.4883 27.2324 44.71 27.2324ZM44.6963 25.9541C43.5205 25.9541 42.625 25.0244 42.625 23.8076C42.625 22.6045 43.4932 21.7363 44.71 21.7363C45.9268 21.7363 46.7676 22.6045 46.7676 23.8418C46.7676 25.0381 45.8721 25.9541 44.6963 25.9541ZM53.5179 27.2393C55.6097 27.2393 57.0247 25.8379 57.0247 23.7871C57.0247 21.8184 55.6575 20.5332 53.9896 20.5332C52.9915 20.5332 52.2601 20.8545 51.8089 21.4629H51.6927L51.9798 18.4346H56.512V17.1357H50.7903L50.2366 22.8301H51.638C52.0003 22.1465 52.6907 21.7363 53.5657 21.7363C54.7278 21.7363 55.5276 22.5703 55.5276 23.8145C55.5276 25.0996 54.721 25.9609 53.5247 25.9609C52.4515 25.9609 51.6517 25.3115 51.5423 24.3271H50.0794C50.1751 26.043 51.556 27.2393 53.5179 27.2393Z" fill="#818C99"/>
<path d="M98.8951 14H89.1049C87.953 14 87.3657 14.1134 86.7545 14.4403C86.1903 14.742 85.742 15.1903 85.4403 15.7545C85.1134 16.3657 85 16.953 85 18.1049V23.8951C85 25.047 85.1134 25.6343 85.4403 26.2455C85.742 26.8097 86.1903 27.258 86.7545 27.5597L86.8954 27.6314C87.4124 27.8807 87.9447 27.9827 88.8488 27.9979L89.1 28V30.2149C89.1 30.6467 89.2693 31.0614 89.5715 31.3698L89.6882 31.478C90.3309 32.0196 91.2923 31.9936 91.9049 31.3933L95.366 28H98.8951C100.047 28 100.634 27.8866 101.245 27.5597C101.81 27.258 102.258 26.8097 102.56 26.2455C102.887 25.6343 103 25.047 103 23.8951V18.1049C103 16.953 102.887 16.3657 102.56 15.7545C102.258 15.1903 101.81 14.742 101.245 14.4403C100.634 14.1134 100.047 14 98.8951 14V14ZM88.9117 15.8011L98.8951 15.8C99.7753 15.8 100.082 15.8592 100.397 16.0275C100.647 16.1616 100.838 16.3528 100.972 16.6034C101.141 16.9182 101.2 17.2247 101.2 18.1049V23.8951L101.196 24.2628C101.179 24.8698 101.115 25.1303 100.972 25.3966C100.838 25.6472 100.647 25.8384 100.397 25.9725C100.082 26.1408 99.7753 26.2 98.8951 26.2H95L94.8832 26.2076C94.6907 26.2328 94.5103 26.3198 94.3701 26.4572L90.9 29.857V27.1C90.9 26.6029 90.4971 26.2 90 26.2H89.1049L88.7372 26.1956C88.1302 26.1792 87.8697 26.1149 87.6034 25.9725C87.3528 25.8384 87.1616 25.6472 87.0275 25.3966C86.8592 25.0818 86.8 24.7753 86.8 23.8951V18.1049L86.8044 17.7372C86.8208 17.1302 86.8851 16.8697 87.0275 16.6034C87.1616 16.3528 87.3528 16.1616 87.6034 16.0275C87.894 15.8721 88.1775 15.8098 88.9117 15.8011V15.8011Z" fill="#99A2AD"/>
<path d="M114.71 27.2324C116.802 27.2324 118.285 25.8037 118.285 23.8008C118.285 21.9004 116.918 20.5127 115.045 20.5127C113.876 20.5127 112.926 21.0596 112.454 22.0098H112.338C112.365 19.5078 113.268 18.1885 114.806 18.1885C115.735 18.1885 116.412 18.667 116.604 19.501H118.142C117.896 17.9355 116.624 16.8965 114.771 16.8965C112.372 16.8965 110.868 18.8516 110.868 22.2012C110.868 25.5576 112.488 27.2324 114.71 27.2324ZM114.696 25.9541C113.521 25.9541 112.625 25.0244 112.625 23.8076C112.625 22.6045 113.493 21.7363 114.71 21.7363C115.927 21.7363 116.768 22.6045 116.768 23.8418C116.768 25.0381 115.872 25.9541 114.696 25.9541ZM123.518 27.2393C125.61 27.2393 127.025 25.8379 127.025 23.7871C127.025 21.8184 125.658 20.5332 123.99 20.5332C122.992 20.5332 122.26 20.8545 121.809 21.4629H121.693L121.98 18.4346H126.512V17.1357H120.79L120.237 22.8301H121.638C122 22.1465 122.691 21.7363 123.566 21.7363C124.728 21.7363 125.528 22.5703 125.528 23.8145C125.528 25.0996 124.721 25.9609 123.525 25.9609C122.451 25.9609 121.652 25.3115 121.542 24.3271H120.079C120.175 26.043 121.556 27.2393 123.518 27.2393Z" fill="#818C99"/>
<path d="M163.996 13.7254C162.881 13.8041 162 14.7342 162 15.87L161.999 17.987L161.979 17.9919C157.446 18.9309 154.1 22.9471 154.1 27.6854C154.1 28.0297 154.118 28.3727 154.152 28.713C154.235 29.5242 155.268 29.8157 155.763 29.1676L155.95 28.9312C157.409 27.1447 159.487 25.9728 161.785 25.6658L161.999 25.64L162 28.1344C162 28.615 162.161 29.082 162.458 29.4604C163.19 30.395 164.542 30.5588 165.476 29.8263L173.3 23.6942C173.436 23.5874 173.559 23.4646 173.666 23.3283C174.398 22.3938 174.235 21.0424 173.3 20.3099L165.476 14.1778C165.098 13.8812 164.631 13.72 164.15 13.72L163.996 13.7254ZM164.15 15.52C164.228 15.52 164.304 15.5462 164.366 15.5945L172.19 21.7266C172.342 21.8458 172.368 22.0658 172.249 22.218C172.232 22.2401 172.212 22.2601 172.19 22.2775L164.366 28.4096C164.214 28.5288 163.994 28.5022 163.875 28.35C163.826 28.2884 163.8 28.2124 163.8 28.1341L163.799 24.6868C163.799 24.184 163.387 23.7789 162.884 23.7872L162.651 23.791L162.309 23.8075C160.035 23.9527 157.912 24.7947 156.19 26.1734L156.016 26.317L156.04 26.1817C156.683 22.7662 159.475 20.0763 163.008 19.6454C163.46 19.5904 163.799 19.2071 163.799 18.7523L163.8 15.8702C163.8 15.6767 163.957 15.52 164.15 15.52Z" fill="#99A2AD"/>
<path d="M185.605 27H187.082V25.0381H188.442V23.7393H187.082V17.1357H184.901C183.541 19.1797 182.092 21.5107 180.793 23.7393V25.0381H185.605V27ZM182.263 23.6709C183.274 21.9414 184.478 20.0205 185.537 18.4277H185.626V23.7666H182.263V23.6709Z" fill="#818C99"/>
</g>
<defs>
<clipPath id="clip0">
<rect width="375" height="44" fill="white"/>
</clipPath>
</defs>
</svg>
