<svg width="28" height="28" viewBox="0 0 28 28" fill="none" xmlns="http://www.w3.org/2000/svg">
<path fill-rule="evenodd" clip-rule="evenodd" d="M12 26C7.3056 26 3.5 22.1999 3.5 17.5121H5.5C5.5 21.0969 8.41017 24.0029 12 24.0028L12.5 24.0028C13.0523 24.0028 13.5 24.4499 13.5 25.0014C13.5 25.5529 13.0523 26 12.5 26L12 26Z" fill="#99A2AD"/>
<path fill-rule="evenodd" clip-rule="evenodd" d="M16 11.0214C16 10.4699 16.4477 10.0229 17 10.0229C19.1846 10.0229 21.1021 11.174 22.1513 12.8998C22.4379 13.3712 22.2875 13.9854 21.8154 14.2716C21.3433 14.5578 20.7283 14.4076 20.4417 13.9362C19.7457 12.7915 18.468 12.02 17 12.02C16.4477 12.02 16 11.5729 16 11.0214Z" fill="#99A2AD"/>
<path fill-rule="evenodd" clip-rule="evenodd" d="M17.5 23.9972L23.4985 20.5134C23.499 20.5132 23.4994 20.5129 23.4998 20.5127C23.4999 20.5112 23.5 20.5096 23.5 20.5079C23.5 20.5061 23.4999 20.5045 23.4998 20.503C23.4994 20.5028 23.499 20.5026 23.4985 20.5023L17.5 17.0185C17.5 17.0191 17.5 17.0198 17.5 17.0205V23.9952C17.5 23.9959 17.5 23.9966 17.5 23.9972ZM24.5041 22.2398C25.832 21.4686 25.832 19.5472 24.504 18.7759L18.4994 15.2886C17.1676 14.5151 15.5 15.478 15.5 17.0205V23.9952C15.5 25.5377 17.1676 26.5006 18.4994 25.7271L24.5041 22.2398Z" fill="#99A2AD"/>
<path fill-rule="evenodd" clip-rule="evenodd" d="M15.6385 4.03105C14.8826 3.8633 14.1345 4.34265 13.9722 5.09878L12.9778 9.7328C12.8621 10.2721 12.3305 10.6155 11.7905 10.5C11.2504 10.3844 10.9065 9.85359 11.0222 9.31434L12.0166 4.68032C12.4116 2.8399 14.2324 1.67316 16.0724 2.08147C17.7921 2.46308 18.9337 4.09489 18.7009 5.8386L17.9912 11.1534C17.9182 11.7001 17.4153 12.0841 16.8678 12.0112C16.3204 11.9383 15.9358 11.4361 16.0088 10.8895L16.7184 5.57465C16.8141 4.85826 16.3451 4.18783 15.6385 4.03105Z" fill="#99A2AD"/>
<path d="M7.22343 6.05468C7.15207 5.23526 7.79894 4.53071 8.62263 4.53071C9.2671 4.53071 9.82887 4.9687 9.98518 5.59303L11.0298 9.76575C11.1638 10.3008 11.7067 10.6261 12.2425 10.4923C12.7783 10.3586 13.1041 9.81641 12.9701 9.28138L11.9255 5.10865C11.5466 3.59526 10.1848 2.53357 8.62263 2.53357C6.626 2.53357 5.05798 4.24141 5.23095 6.22769L5.97064 14.722L7.87471 13.5336L7.22343 6.05468Z" fill="#99A2AD"/>
<path fill-rule="evenodd" clip-rule="evenodd" d="M11.4724 14.7518C11.3215 14.0735 10.6973 13.6068 10.003 13.653L8.76718 13.7353C6.92864 13.8577 5.5 15.3826 5.5 17.2225V17.5121C5.5 18.0636 5.05228 18.5107 4.5 18.5107C3.94772 18.5107 3.5 18.0636 3.5 17.5121V17.2225C3.5 14.3311 5.74501 11.9349 8.63415 11.7426L9.87001 11.6603C11.5497 11.5485 13.0596 12.6776 13.4248 14.3186C13.8488 16.2238 12.5852 18.0942 10.6573 18.4151L10.1644 18.4971C9.61963 18.5878 9.1044 18.2203 9.01361 17.6763C8.92281 17.1323 9.29083 16.6178 9.8356 16.5272L10.3285 16.4451C11.1254 16.3125 11.6477 15.5394 11.4724 14.7518Z" fill="#99A2AD"/>
</svg>
