<svg width="377" height="51" viewBox="0 0 377 51" fill="none" xmlns="http://www.w3.org/2000/svg">
<path d="M1 1H376V50H1V1Z" fill="white"/>
<path d="M42.0903 9C44.2733 9 45.323 9.20271 46.4137 9.78602C47.4028 10.315 48.185 11.0972 48.714 12.0863C49.2973 13.177 49.5 14.2267 49.5 16.4097V23.5903C49.5 25.7733 49.2973 26.823 48.714 27.9137C48.185 28.9028 47.4028 29.685 46.4137 30.214C45.323 30.7973 44.2733 31 42.0903 31H34.9097C32.7267 31 31.677 30.7973 30.5863 30.214C29.5972 29.685 28.815 28.9028 28.286 27.9137C27.7027 26.823 27.5 25.7733 27.5 23.5903V16.4097C27.5 14.2267 27.7027 13.177 28.286 12.0863C28.815 11.0972 29.5972 10.315 30.5863 9.78602C31.677 9.20271 32.7267 9 34.9097 9H42.0903ZM29.499 17L29.5 23.5903C29.5 25.4714 29.6425 26.2092 30.0496 26.9705C30.3922 27.6111 30.8889 28.1078 31.5295 28.4504C32.2908 28.8575 33.0286 29 34.9097 29H42.0903C43.9714 29 44.7092 28.8575 45.4705 28.4504C46.1111 28.1078 46.6078 27.6111 46.9504 26.9705C47.3575 26.2092 47.5 25.4714 47.5 23.5903L47.499 17H29.499ZM42.0903 11H34.9097C33.0286 11 32.2908 11.1425 31.5295 11.5496C30.8889 11.8922 30.3922 12.3889 30.0496 13.0295C29.7641 13.5635 29.6087 14.0859 29.5414 14.9995H47.4586C47.3913 14.0859 47.2359 13.5635 46.9504 13.0295C46.6078 12.3889 46.1111 11.8922 45.4705 11.5496C44.7092 11.1425 43.9714 11 42.0903 11Z" fill="#2975CC"/>
<path d="M23.6527 46V38.9541H22.5638V41.9326H18.9457V38.9541H17.8519V46H18.9457V42.8799H22.5638V46H23.6527ZM27.762 46.1025C29.3147 46.1025 30.2668 45.0625 30.2668 43.3486C30.2668 41.6348 29.3098 40.5947 27.762 40.5947C26.2092 40.5947 25.2522 41.6396 25.2522 43.3486C25.2522 45.0625 26.2043 46.1025 27.762 46.1025ZM27.762 45.209C26.8489 45.209 26.3362 44.5303 26.3362 43.3486C26.3362 42.167 26.8489 41.4834 27.762 41.4834C28.6702 41.4834 29.1877 42.167 29.1877 43.3486C29.1877 44.5254 28.6702 45.209 27.762 45.209ZM34.1661 46C35.3331 46 36.0314 45.3945 36.0314 44.4814C36.0314 43.8467 35.5821 43.3682 34.8937 43.2852V43.2021C35.4161 43.1045 35.7921 42.6113 35.7921 42.0645C35.7921 41.2344 35.1818 40.6973 34.1417 40.6973H31.7443V46H34.1661ZM32.7843 41.4736H33.9415C34.4982 41.4736 34.7618 41.7617 34.7618 42.1914C34.7618 42.665 34.4591 42.9189 33.8243 42.9189H32.7843V41.4736ZM32.7843 43.6807H33.9073C34.6105 43.6807 34.9718 43.9297 34.9718 44.4424C34.9718 44.9355 34.6495 45.2188 34.0392 45.2188H32.7843V43.6807ZM39.7305 46.1025C41.2832 46.1025 42.2354 45.0625 42.2354 43.3486C42.2354 41.6348 41.2783 40.5947 39.7305 40.5947C38.1777 40.5947 37.2207 41.6396 37.2207 43.3486C37.2207 45.0625 38.1729 46.1025 39.7305 46.1025ZM39.7305 45.209C38.8174 45.209 38.3047 44.5303 38.3047 43.3486C38.3047 42.167 38.8174 41.4834 39.7305 41.4834C40.6387 41.4834 41.1562 42.167 41.1562 43.3486C41.1562 44.5254 40.6387 45.209 39.7305 45.209ZM48.2196 42.4014C48.0829 41.3711 47.2772 40.5947 45.9442 40.5947C44.3964 40.5947 43.454 41.6445 43.454 43.3291C43.454 45.0479 44.4012 46.1025 45.9491 46.1025C47.2626 46.1025 48.0829 45.3652 48.2196 44.3203H47.1991C47.0624 44.8965 46.6083 45.209 45.9442 45.209C45.0702 45.209 44.5282 44.501 44.5282 43.3291C44.5282 42.1816 45.0653 41.4883 45.9442 41.4883C46.6473 41.4883 47.077 41.8838 47.1991 42.4014H48.2196ZM53.3738 40.6973H48.9744V41.5371H50.6492V46H51.699V41.5371H53.3738V40.6973ZM55.7155 46L58.1422 42.2646H58.2252V46H59.2653V40.6973H58.2252L55.7985 44.418H55.7155V40.6973H54.6754V46H55.7155Z" fill="#2975CC"/>
<path d="M108.616 20.9999C109.681 20.9999 110.239 21.1077 110.821 21.4187C111.361 21.708 111.792 22.1385 112.081 22.6794C112.392 23.2608 112.5 23.8189 112.5 24.8843V27.1156C112.5 28.181 112.392 28.7391 112.081 29.3205C111.792 29.8614 111.361 30.2919 110.821 30.5812C110.239 30.8922 109.681 30.9999 108.616 30.9999H106.384C105.319 30.9999 104.761 30.8922 104.179 30.5812C103.639 30.2919 103.208 29.8614 102.919 29.3205C102.608 28.7391 102.5 28.181 102.5 27.1156V24.8843C102.5 23.8189 102.608 23.2608 102.919 22.6794C103.208 22.1385 103.639 21.708 104.179 21.4187C104.761 21.1077 105.319 20.9999 106.384 20.9999H108.616ZM120.616 20.9999C121.681 20.9999 122.239 21.1077 122.821 21.4187C123.361 21.708 123.792 22.1385 124.081 22.6794C124.392 23.2608 124.5 23.8189 124.5 24.8843V27.1156C124.5 28.181 124.392 28.7391 124.081 29.3205C123.792 29.8614 123.361 30.2919 122.821 30.5812C122.239 30.8922 121.681 30.9999 120.616 30.9999H118.384C117.319 30.9999 116.761 30.8922 116.179 30.5812C115.639 30.2919 115.208 29.8614 114.919 29.3205C114.608 28.7391 114.5 28.181 114.5 27.1156V24.8843C114.5 23.8189 114.608 23.2608 114.919 22.6794C115.208 22.1385 115.639 21.708 116.179 21.4187C116.761 21.1077 117.319 20.9999 118.384 20.9999H120.616ZM108.616 22.9999H106.384C105.621 22.9999 105.375 23.0475 105.123 23.1823C104.93 23.2852 104.785 23.4302 104.682 23.6226C104.548 23.8746 104.5 24.1209 104.5 24.8843V27.1156C104.5 27.879 104.548 28.1253 104.682 28.3773C104.785 28.5697 104.93 28.7147 105.123 28.8176C105.375 28.9524 105.621 28.9999 106.384 28.9999H108.616C109.379 28.9999 109.625 28.9524 109.877 28.8176C110.07 28.7147 110.215 28.5697 110.318 28.3773C110.452 28.1253 110.5 27.879 110.5 27.1156V24.8843C110.5 24.1209 110.452 23.8746 110.318 23.6226C110.215 23.4302 110.07 23.2852 109.877 23.1823C109.625 23.0475 109.379 22.9999 108.616 22.9999ZM120.616 22.9999H118.384C117.621 22.9999 117.375 23.0475 117.123 23.1823C116.93 23.2852 116.785 23.4302 116.682 23.6226C116.548 23.8746 116.5 24.1209 116.5 24.8843V27.1156C116.5 27.879 116.548 28.1253 116.682 28.3773C116.785 28.5697 116.93 28.7147 117.123 28.8176C117.375 28.9524 117.621 28.9999 118.384 28.9999H120.616C121.379 28.9999 121.625 28.9524 121.877 28.8176C122.07 28.7147 122.215 28.5697 122.318 28.3773C122.452 28.1253 122.5 27.879 122.5 27.1156V24.8843C122.5 24.1209 122.452 23.8746 122.318 23.6226C122.215 23.4302 122.07 23.2852 121.877 23.1823C121.625 23.0475 121.379 22.9999 120.616 22.9999ZM120.391 8.4125C121.022 8.60375 121.493 8.92221 122.247 9.67555L123.824 11.2533C124.578 12.0066 124.896 12.4775 125.087 13.1085C125.265 13.6955 125.265 14.3044 125.087 14.8914C124.896 15.5224 124.578 15.9933 123.824 16.7466L122.247 18.3244C121.493 19.0777 121.022 19.3962 120.391 19.5874C119.804 19.7653 119.196 19.7653 118.609 19.5874C117.978 19.3962 117.507 19.0777 116.753 18.3244L115.176 16.7466C114.422 15.9933 114.104 15.5224 113.913 14.8914C113.735 14.3044 113.735 13.6955 113.913 13.1085C114.104 12.4775 114.422 12.0066 115.176 11.2533L116.753 9.67555C117.507 8.92221 117.978 8.60375 118.609 8.4125C119.196 8.23457 119.804 8.23457 120.391 8.4125ZM108.616 8.99995C109.681 8.99995 110.239 9.10773 110.821 9.41866C111.361 9.70796 111.792 10.1385 112.081 10.6794C112.392 11.2608 112.5 11.8189 112.5 12.8843V15.1156C112.5 16.181 112.392 16.7391 112.081 17.3205C111.792 17.8614 111.361 18.2919 110.821 18.5812C110.239 18.8922 109.681 18.9999 108.616 18.9999H106.384C105.319 18.9999 104.761 18.8922 104.179 18.5812C103.639 18.2919 103.208 17.8614 102.919 17.3205C102.608 16.7391 102.5 16.181 102.5 15.1156V12.8843C102.5 11.8189 102.608 11.2608 102.919 10.6794C103.208 10.1385 103.639 9.70796 104.179 9.41866C104.761 9.10773 105.319 8.99995 106.384 8.99995H108.616ZM119.189 10.3265C118.915 10.4094 118.707 10.5499 118.168 11.0898L116.59 12.6675C116.05 13.2073 115.909 13.4151 115.827 13.6886C115.763 13.8974 115.763 14.1025 115.827 14.3113C115.909 14.5848 116.05 14.7926 116.59 15.3324L118.168 16.9101C118.707 17.45 118.915 17.5905 119.189 17.6734C119.397 17.7367 119.603 17.7367 119.811 17.6734C120.085 17.5905 120.293 17.45 120.832 16.9101L122.41 15.3324C122.95 14.7926 123.091 14.5848 123.173 14.3113C123.237 14.1025 123.237 13.8974 123.173 13.6886C123.091 13.4151 122.95 13.2073 122.41 12.6675L120.832 11.0898C120.293 10.5499 120.085 10.4094 119.811 10.3265C119.603 10.2632 119.397 10.2632 119.189 10.3265ZM108.616 10.9999H106.384C105.621 10.9999 105.375 11.0475 105.123 11.1823C104.93 11.2852 104.785 11.4302 104.682 11.6226C104.548 11.8746 104.5 12.1209 104.5 12.8843V15.1156C104.5 15.879 104.548 16.1253 104.682 16.3773C104.785 16.5697 104.93 16.7147 105.123 16.8176C105.375 16.9524 105.621 16.9999 106.384 16.9999H108.616C109.379 16.9999 109.625 16.9524 109.877 16.8176C110.07 16.7147 110.215 16.5697 110.318 16.3773C110.452 16.1253 110.5 15.879 110.5 15.1156V12.8843C110.5 12.1209 110.452 11.8746 110.318 11.6226C110.215 11.4302 110.07 11.2852 109.877 11.1823C109.625 11.0475 109.379 10.9999 108.616 10.9999Z" fill="#99A2AD"/>
<path d="M94.5804 46.1709C96.1527 46.1709 97.3099 45.2676 97.5052 43.8955H96.4164C96.2211 44.6963 95.513 45.1992 94.5804 45.1992C93.3109 45.1992 92.5199 44.1543 92.5199 42.4795C92.5199 40.8047 93.3109 39.7549 94.5755 39.7549C95.5033 39.7549 96.2113 40.3115 96.4164 41.1855H97.5052C97.3295 39.7744 96.1283 38.7832 94.5755 38.7832C92.6175 38.7832 91.4017 40.1992 91.4017 42.4795C91.4017 44.7549 92.6224 46.1709 94.5804 46.1709ZM102.528 44.5791C102.332 45.0088 101.898 45.2432 101.263 45.2432C100.423 45.2432 99.8811 44.6377 99.8469 43.6758V43.627H103.602V43.2656C103.602 41.6055 102.708 40.5947 101.229 40.5947C99.7297 40.5947 98.7776 41.6738 98.7776 43.3584C98.7776 45.0527 99.7102 46.1025 101.234 46.1025C102.449 46.1025 103.309 45.5166 103.538 44.5791H102.528ZM101.224 41.4492C102 41.4492 102.508 42.0107 102.532 42.8701H99.8469C99.9055 42.0156 100.447 41.4492 101.224 41.4492ZM107.838 40.6045C107.115 40.6045 106.49 40.9707 106.168 41.5762H106.09V40.6973H105.079V47.7676H106.129V45.1992H106.212C106.49 45.7607 107.091 46.0879 107.848 46.0879C109.191 46.0879 110.045 45.0234 110.045 43.3486C110.045 41.6641 109.191 40.6045 107.838 40.6045ZM107.54 45.1895C106.661 45.1895 106.109 44.4814 106.109 43.3486C106.109 42.2109 106.661 41.5029 107.545 41.5029C108.434 41.5029 108.966 42.1963 108.966 43.3486C108.966 44.501 108.434 45.1895 107.54 45.1895ZM113.944 46C115.111 46 115.81 45.3945 115.81 44.4814C115.81 43.8467 115.36 43.3682 114.672 43.2852V43.2021C115.194 43.1045 115.57 42.6113 115.57 42.0645C115.57 41.2344 114.96 40.6973 113.92 40.6973H111.522V46H113.944ZM112.562 41.4736H113.72C114.276 41.4736 114.54 41.7617 114.54 42.1914C114.54 42.665 114.237 42.9189 113.603 42.9189H112.562V41.4736ZM112.562 43.6807H113.686C114.389 43.6807 114.75 43.9297 114.75 44.4424C114.75 44.9355 114.428 45.2188 113.817 45.2188H112.562V43.6807ZM118.356 46L120.783 42.2646H120.866V46H121.906V40.6973H120.866L118.439 44.418H118.356V40.6973H117.316V46H118.356ZM128.154 42.4014C128.017 41.3711 127.212 40.5947 125.879 40.5947C124.331 40.5947 123.388 41.6445 123.388 43.3291C123.388 45.0479 124.336 46.1025 125.884 46.1025C127.197 46.1025 128.017 45.3652 128.154 44.3203H127.134C126.997 44.8965 126.543 45.209 125.879 45.209C125.005 45.209 124.463 44.501 124.463 43.3291C124.463 42.1816 125 41.4883 125.879 41.4883C126.582 41.4883 127.011 41.8838 127.134 42.4014H128.154ZM134.387 46H135.437V40.6973H134.387V46ZM129.568 46H131.668C132.898 46 133.684 45.292 133.684 44.1689C133.684 43.0508 132.898 42.3428 131.668 42.3428H130.618V40.6973H129.568V46ZM131.589 43.1777C132.224 43.1777 132.639 43.5684 132.639 44.1689C132.639 44.7646 132.229 45.1602 131.589 45.1602H130.618V43.1777H131.589Z" fill="#99A2AD"/>
<path fill-rule="evenodd" clip-rule="evenodd" d="M177.037 19.4989C177.037 13.839 182.326 9.5 188.518 9.5C194.711 9.5 200 13.839 200 19.4989C200 25.1589 194.711 29.4979 188.518 29.4979C187.145 29.4979 185.825 29.288 184.6 28.9013C183.156 30.2498 181.056 30.898 178.488 30.9989C177.442 31.04 176.687 29.9519 177.125 28.978C177.747 27.5866 178.549 25.9915 178.645 24.6002C177.628 23.1195 177.037 21.3721 177.037 19.4989ZM188.518 11.5C183.133 11.5 179.037 15.2189 179.037 19.4989C179.037 21.0359 179.552 22.4778 180.459 23.6996C180.587 23.872 180.656 24.081 180.656 24.2957C180.656 25.9295 180.005 27.471 179.341 28.9339C181.398 28.7155 182.746 28.0571 183.56 27.1C183.833 26.7786 184.278 26.6631 184.673 26.8114C185.846 27.2516 187.146 27.4979 188.518 27.4979C193.904 27.4979 198 23.779 198 19.4989C198 15.2189 193.904 11.5 188.518 11.5Z" fill="#99A2AD"/>
<path d="M193.5 13C193.5 8.02944 197.529 4 202.5 4V4C207.471 4 211.5 8.02944 211.5 13V13C211.5 17.9706 207.471 22 202.5 22V22C197.529 22 193.5 17.9706 193.5 13V13Z" fill="#FF3347"/>
<path d="M202.605 17.1934C204.34 17.1934 205.57 15.9805 205.57 14.2812C205.57 12.6406 204.404 11.4512 202.793 11.4512C201.785 11.4512 200.959 11.9316 200.543 12.752H200.449C200.484 10.4551 201.305 9.2832 202.711 9.2832C203.566 9.2832 204.188 9.72266 204.363 10.5078H205.447C205.23 9.19531 204.217 8.3457 202.676 8.3457C200.678 8.3457 199.424 10.0098 199.424 12.916C199.424 15.7637 200.766 17.1934 202.605 17.1934ZM202.594 16.2676C201.51 16.2676 200.684 15.4121 200.684 14.2812C200.684 13.1621 201.486 12.3652 202.605 12.3652C203.725 12.3652 204.504 13.1621 204.504 14.3164C204.504 15.4238 203.678 16.2676 202.594 16.2676Z" fill="white"/>
<path d="M162.708 46.1709C164.28 46.1709 165.437 45.2676 165.632 43.8955H164.543C164.348 44.6963 163.64 45.1992 162.708 45.1992C161.438 45.1992 160.647 44.1543 160.647 42.4795C160.647 40.8047 161.438 39.7549 162.703 39.7549C163.63 39.7549 164.338 40.3115 164.543 41.1855H165.632C165.457 39.7744 164.255 38.7832 162.703 38.7832C160.745 38.7832 159.529 40.1992 159.529 42.4795C159.529 44.7549 160.749 46.1709 162.708 46.1709ZM169.414 46.1025C170.967 46.1025 171.919 45.0625 171.919 43.3486C171.919 41.6348 170.962 40.5947 169.414 40.5947C167.862 40.5947 166.905 41.6396 166.905 43.3486C166.905 45.0625 167.857 46.1025 169.414 46.1025ZM169.414 45.209C168.501 45.209 167.989 44.5303 167.989 43.3486C167.989 42.167 168.501 41.4834 169.414 41.4834C170.323 41.4834 170.84 42.167 170.84 43.3486C170.84 44.5254 170.323 45.209 169.414 45.209ZM175.648 46.1025C177.2 46.1025 178.153 45.0625 178.153 43.3486C178.153 41.6348 177.196 40.5947 175.648 40.5947C174.095 40.5947 173.138 41.6396 173.138 43.3486C173.138 45.0625 174.09 46.1025 175.648 46.1025ZM175.648 45.209C174.735 45.209 174.222 44.5303 174.222 43.3486C174.222 42.167 174.735 41.4834 175.648 41.4834C176.556 41.4834 177.073 42.167 177.073 43.3486C177.073 44.5254 176.556 45.209 175.648 45.209ZM181.92 46.1025C183.478 46.1025 184.444 45.0771 184.444 43.4023C184.444 41.8008 183.497 40.8291 182.106 40.8291C181.222 40.8291 180.636 41.2393 180.318 41.8203H180.235C180.392 40.5605 180.807 39.8477 182.184 39.7891L182.765 39.7695C183.771 39.7305 184.093 39.4814 184.093 39.4814V38.6025C184.098 38.6025 183.546 38.8271 182.706 38.8613L182.125 38.8857C180.065 38.9736 179.381 40.3799 179.381 42.9092C179.381 45.0625 180.314 46.1025 181.92 46.1025ZM181.91 45.209C180.987 45.209 180.46 44.5547 180.46 43.4121C180.46 42.3232 180.987 41.6982 181.91 41.6982C182.833 41.6982 183.36 42.3232 183.36 43.4121C183.36 44.5547 182.838 45.209 181.91 45.209ZM185.932 46H192.592V47.3916H193.588V45.1602H192.743V40.6973H191.693V45.1602H189.862V40.6973H188.812V45.1602H186.981V40.6973H185.932V46ZM198.264 44.5791C198.068 45.0088 197.634 45.2432 196.999 45.2432C196.159 45.2432 195.617 44.6377 195.583 43.6758V43.627H199.338V43.2656C199.338 41.6055 198.444 40.5947 196.965 40.5947C195.466 40.5947 194.514 41.6738 194.514 43.3584C194.514 45.0527 195.446 46.1025 196.97 46.1025C198.185 46.1025 199.045 45.5166 199.274 44.5791H198.264ZM196.96 41.4492C197.736 41.4492 198.244 42.0107 198.268 42.8701H195.583C195.641 42.0156 196.183 41.4492 196.96 41.4492ZM204.282 46H205.332V40.6973H204.282V42.8359H201.86V40.6973H200.81V46H201.86V43.6758H204.282V46ZM208.103 46L210.53 42.2646H210.613V46H211.653V40.6973H210.613L208.186 44.418H208.103V40.6973H207.063V46H208.103ZM216.27 46H217.305V40.6973H215.264C214.039 40.6973 213.238 41.376 213.238 42.4795C213.238 43.207 213.687 43.7734 214.419 43.9834L212.969 46H214.19L215.479 44.1641H216.27V46ZM215.318 43.3535C214.688 43.3535 214.278 42.9873 214.278 42.4697C214.278 41.8887 214.683 41.5322 215.318 41.5322H216.27V43.3535H215.318Z" fill="#99A2AD"/>
<path fill-rule="evenodd" clip-rule="evenodd" d="M261.5 32C256.806 32 253 28.1999 253 23.5121H255C255 27.0969 257.91 30.0029 261.5 30.0028L262 30.0028C262.552 30.0028 263 30.4499 263 31.0014C263 31.5529 262.552 32 262 32L261.5 32Z" fill="#99A2AD"/>
<path fill-rule="evenodd" clip-rule="evenodd" d="M265.5 17.0214C265.5 16.4699 265.948 16.0229 266.5 16.0229C268.685 16.0229 270.602 17.174 271.651 18.8998C271.938 19.3712 271.788 19.9854 271.315 20.2716C270.843 20.5578 270.228 20.4076 269.942 19.9362C269.246 18.7915 267.968 18.02 266.5 18.02C265.948 18.02 265.5 17.5729 265.5 17.0214Z" fill="#99A2AD"/>
<path fill-rule="evenodd" clip-rule="evenodd" d="M267 29.9972L272.999 26.5134C272.999 26.5132 272.999 26.5129 273 26.5127C273 26.5112 273 26.5096 273 26.5079C273 26.5061 273 26.5045 273 26.503C272.999 26.5028 272.999 26.5026 272.999 26.5023L267 23.0185C267 23.0191 267 23.0198 267 23.0205V29.9952C267 29.9959 267 29.9966 267 29.9972ZM274.004 28.2398C275.332 27.4686 275.332 25.5472 274.004 24.7759L267.999 21.2886C266.668 20.5151 265 21.478 265 23.0205V29.9952C265 31.5377 266.668 32.5006 267.999 31.7271L274.004 28.2398Z" fill="#99A2AD"/>
<path fill-rule="evenodd" clip-rule="evenodd" d="M265.139 10.031C264.383 9.8633 263.634 10.3427 263.472 11.0988L262.478 15.7328C262.362 16.2721 261.83 16.6155 261.29 16.5C260.75 16.3844 260.406 15.8536 260.522 15.3143L261.517 10.6803C261.912 8.8399 263.732 7.67316 265.572 8.08147C267.292 8.46308 268.434 10.0949 268.201 11.8386L267.491 17.1534C267.418 17.7001 266.915 18.0841 266.368 18.0112C265.82 17.9383 265.436 17.4361 265.509 16.8895L266.218 11.5747C266.314 10.8583 265.845 10.1878 265.139 10.031Z" fill="#99A2AD"/>
<path d="M256.723 12.0547C256.652 11.2353 257.299 10.5307 258.123 10.5307C258.767 10.5307 259.329 10.9687 259.485 11.593L260.53 15.7658C260.664 16.3008 261.207 16.6261 261.743 16.4923C262.278 16.3586 262.604 15.8164 262.47 15.2814L261.425 11.1087C261.047 9.59526 259.685 8.53357 258.123 8.53357C256.126 8.53357 254.558 10.2414 254.731 12.2277L255.471 20.722L257.375 19.5336L256.723 12.0547Z" fill="#99A2AD"/>
<path fill-rule="evenodd" clip-rule="evenodd" d="M260.972 20.7518C260.821 20.0735 260.197 19.6068 259.503 19.653L258.267 19.7353C256.429 19.8577 255 21.3826 255 23.2225V23.5121C255 24.0636 254.552 24.5107 254 24.5107C253.448 24.5107 253 24.0636 253 23.5121V23.2225C253 20.3311 255.245 17.9349 258.134 17.7426L259.37 17.6603C261.05 17.5485 262.56 18.6776 262.925 20.3186C263.349 22.2238 262.085 24.0942 260.157 24.4151L259.664 24.4971C259.12 24.5878 258.604 24.2203 258.514 23.6763C258.423 23.1323 258.791 22.6178 259.336 22.5272L259.828 22.4451C260.625 22.3125 261.148 21.5394 260.972 20.7518Z" fill="#99A2AD"/>
<path d="M249.08 42.0156V38.9541H247.987V46H249.08V42.8701H249.334L252.235 46H253.621L250.262 42.3672L253.367 38.9541H252.073L249.329 42.0156H249.08ZM256.119 43.5977L256.266 41.5371H257.95V46H259V40.6973H255.338L255.152 43.5537C255.089 44.4863 254.903 45.1016 254.386 45.1016C254.254 45.1016 254.151 45.0771 254.103 45.0625V45.9951C254.166 46.0195 254.288 46.0488 254.464 46.0488C255.641 46.0488 256.017 45.0967 256.119 43.5977ZM261.776 46L264.203 42.2646H264.286V46H265.326V40.6973H264.286L261.859 44.418H261.776V40.6973H260.736V46H261.776ZM270.49 46H271.54V40.6973H267.067V46H268.117V41.5371H270.49V46ZM278.091 46H279.14V40.6973H278.091V46ZM273.271 46H275.371C276.601 46 277.387 45.292 277.387 44.1689C277.387 43.0508 276.601 42.3428 275.371 42.3428H274.321V40.6973H273.271V46ZM275.293 43.1777C275.927 43.1777 276.343 43.5684 276.343 44.1689C276.343 44.7646 275.932 45.1602 275.293 45.1602H274.321V43.1777H275.293Z" fill="#99A2AD"/>
<path d="M338.5 8C345.127 8 350.5 13.3726 350.5 20C350.5 26.6274 345.127 32 338.5 32C331.873 32 326.5 26.6274 326.5 20C326.5 13.3726 331.873 8 338.5 8ZM338.5 26.5C336.414 26.5 334.42 27.082 332.703 28.149C334.338 29.3146 336.339 30 338.5 30C340.661 30 342.661 29.3148 344.296 28.15C342.579 27.0818 340.586 26.5 338.5 26.5ZM338.5 10C332.977 10 328.5 14.4772 328.5 20C328.5 22.6157 329.504 24.9968 331.148 26.7788C333.286 25.3082 335.831 24.5 338.5 24.5C341.169 24.5 343.715 25.3084 345.853 26.7774C347.496 24.9959 348.5 22.6152 348.5 20C348.5 14.4772 344.023 10 338.5 10ZM338.5 13.5C341.124 13.5 343.25 15.6258 343.25 18.25C343.25 20.8742 341.124 23 338.5 23C335.876 23 333.75 20.8742 333.75 18.25C333.75 15.6258 335.876 13.5 338.5 13.5ZM338.5 15.5C336.98 15.5 335.75 16.7304 335.75 18.25C335.75 19.7696 336.98 21 338.5 21C340.02 21 341.25 19.7696 341.25 18.25C341.25 16.7304 340.02 15.5 338.5 15.5Z" fill="#99A2AD"/>
<path d="M322.159 46V38.9541H316.451V46H317.549V39.9062H321.075V46H322.159ZM326.785 40.6045C326.063 40.6045 325.438 40.9707 325.115 41.5762H325.037V40.6973H324.027V47.7676H325.076V45.1992H325.159C325.438 45.7607 326.038 46.0879 326.795 46.0879C328.138 46.0879 328.992 45.0234 328.992 43.3486C328.992 41.6641 328.138 40.6045 326.785 40.6045ZM326.488 45.1895C325.609 45.1895 325.057 44.4814 325.057 43.3486C325.057 42.2109 325.609 41.5029 326.492 41.5029C327.381 41.5029 327.913 42.1963 327.913 43.3486C327.913 44.501 327.381 45.1895 326.488 45.1895ZM332.721 46.1025C334.274 46.1025 335.226 45.0625 335.226 43.3486C335.226 41.6348 334.269 40.5947 332.721 40.5947C331.168 40.5947 330.211 41.6396 330.211 43.3486C330.211 45.0625 331.163 46.1025 332.721 46.1025ZM332.721 45.209C331.808 45.209 331.295 44.5303 331.295 43.3486C331.295 42.167 331.808 41.4834 332.721 41.4834C333.629 41.4834 334.147 42.167 334.147 43.3486C334.147 44.5254 333.629 45.209 332.721 45.209ZM339.228 46.0684V47.7676H340.253V46.0684C341.928 46.0391 343.031 44.9941 343.031 43.3486C343.031 41.6982 341.933 40.6631 340.253 40.6289V38.9297H339.228V40.6289C337.553 40.6582 336.444 41.7031 336.444 43.3486C336.444 44.9941 337.543 46.0342 339.228 46.0684ZM339.228 45.2139C338.178 45.1846 337.514 44.4912 337.514 43.3486C337.514 42.2061 338.183 41.5078 339.228 41.4834V45.2139ZM341.967 43.3486C341.967 44.4912 341.293 45.1895 340.248 45.2139V41.4834C341.298 41.5127 341.967 42.2061 341.967 43.3486ZM345.549 46L347.975 42.2646H348.058V46H349.099V40.6973H348.058L345.632 44.418H345.549V40.6973H344.509V46H345.549ZM352.28 43.5977L352.427 41.5371H354.111V46H355.161V40.6973H351.499L351.313 43.5537C351.25 44.4863 351.064 45.1016 350.547 45.1016C350.415 45.1016 350.312 45.0771 350.263 45.0625V45.9951C350.327 46.0195 350.449 46.0488 350.625 46.0488C351.802 46.0488 352.177 45.0967 352.28 43.5977ZM356.897 46H358.997C360.227 46 361.013 45.292 361.013 44.1689C361.013 43.0508 360.227 42.3428 358.997 42.3428H357.947V40.6973H356.897V46ZM358.919 43.1777C359.553 43.1777 359.968 43.5684 359.968 44.1689C359.968 44.7646 359.558 45.1602 358.919 45.1602H357.947V43.1777H358.919Z" fill="#99A2AD"/>
<path d="M1 1V0.5H0.5V1H1ZM376 1H376.5V0.5H376V1ZM376 50V50.5H376.5V50H376ZM1 50H0.5V50.5H1V50ZM1 1.5H376V0.5H1V1.5ZM375.5 1V50H376.5V1H375.5ZM376 49.5H1V50.5H376V49.5ZM1.5 50V1H0.5V50H1.5Z" fill="black" fill-opacity="0.12"/>
</svg>
