<svg width="44" height="44" viewBox="0 0 44 44" fill="none" xmlns="http://www.w3.org/2000/svg">
<rect width="44" height="44" rx="10" fill="#3F8AE0"/>
<path fill-rule="evenodd" clip-rule="evenodd" d="M20.2364 13.2636C20.5878 13.6151 20.5878 14.1849 20.2364 14.5364L17.6728 17.1H22C25.2585 17.1 27.9 19.7415 27.9 23C27.9 26.2585 25.2585 28.9 22 28.9H17.9C17.4029 28.9 17 28.4971 17 28C17 27.5029 17.4029 27.1 17.9 27.1H22C24.2643 27.1 26.1 25.2644 26.1 23C26.1 20.7356 24.2643 18.9 22 18.9H17.6728L20.2364 21.4636C20.5878 21.815 20.5878 22.3849 20.2364 22.7364C19.8849 23.0878 19.3151 23.0878 18.9636 22.7364L14.8636 18.6364C14.6948 18.4676 14.6 18.2387 14.6 18C14.6 17.7613 14.6948 17.5324 14.8636 17.3636L18.9636 13.2636C19.3151 12.9121 19.8849 12.9121 20.2364 13.2636Z" fill="white"/>
</svg>
