<svg width="110" height="26" viewBox="0 0 110 26" fill="none" xmlns="http://www.w3.org/2000/svg">
<rect width="110" height="26" rx="8" fill="white"/>
<path d="M16.8997 7.98206L24.7068 12.4833C24.9939 12.6488 25.0924 13.0157 24.9269 13.3028C24.8742 13.3942 24.7982 13.4702 24.7068 13.5229L16.8997 18.0241C16.6126 18.1896 16.2457 18.0911 16.0802 17.804C16.0277 17.7129 16 17.6095 16 17.5043V8.50186C16 8.17048 16.2686 7.90186 16.6 7.90186C16.7052 7.90186 16.8086 7.92952 16.8997 7.98206Z" fill="black"/>
<path d="M41.6605 14.2227C41.5746 15.1328 41.2387 15.8438 40.6527 16.3555C40.0668 16.8633 39.2875 17.1172 38.3148 17.1172C37.6352 17.1172 37.0355 16.957 36.516 16.6367C36.0004 16.3125 35.602 15.8535 35.3207 15.2598C35.0395 14.666 34.893 13.9766 34.8813 13.1914V12.3945C34.8813 11.5898 35.0238 10.8809 35.309 10.2676C35.5941 9.6543 36.0023 9.18164 36.5336 8.84961C37.0688 8.51758 37.6859 8.35156 38.3852 8.35156C39.3266 8.35156 40.0844 8.60742 40.6586 9.11914C41.2328 9.63086 41.5668 10.3535 41.6605 11.2871H40.184C40.1137 10.6738 39.934 10.2324 39.6449 9.96289C39.3598 9.68945 38.9398 9.55273 38.3852 9.55273C37.7406 9.55273 37.2445 9.78906 36.8969 10.2617C36.5531 10.7305 36.3773 11.4199 36.3695 12.3301V13.0859C36.3695 14.0078 36.5336 14.7109 36.8617 15.1953C37.1938 15.6797 37.6781 15.9219 38.3148 15.9219C38.8969 15.9219 39.3344 15.791 39.6273 15.5293C39.9203 15.2676 40.1059 14.832 40.184 14.2227H41.6605ZM49.9996 8.46875V17H48.523V9.66406H45.9098L45.7574 12.9629C45.6988 13.9941 45.5719 14.7949 45.3766 15.3652C45.1852 15.9316 44.9059 16.3457 44.5387 16.6074C44.1715 16.8691 43.6793 17 43.0621 17H42.6871V15.8164L42.9215 15.7988C43.2613 15.7676 43.523 15.6484 43.7066 15.4414C43.8941 15.2344 44.0348 14.9219 44.1285 14.5039C44.2262 14.082 44.2945 13.4629 44.3336 12.6465L44.4977 8.46875H49.9996ZM55.157 12.9277L56.868 8.46875H58.5145L55.5438 15.5469L55.2742 16.0801C54.8836 16.7754 54.2508 17.123 53.3758 17.123L52.7664 17.0879L52.7781 15.916C52.8719 15.9316 53.0379 15.9395 53.2762 15.9395C53.698 15.9395 53.9949 15.7598 54.1668 15.4004L54.4715 14.6797L51.5535 8.46875H53.1707L55.157 12.9277ZM61.457 8.46875V15.8164H64.0586V8.46875H65.5352V15.8164H68.1191V8.46875H69.5957V17H59.9688V8.46875H61.457ZM76.5402 15.0137H73.2355L72.5441 17H71.0031L74.2258 8.46875H75.5559L78.7844 17H77.2375L76.5402 15.0137ZM73.6516 13.8184H76.1242L74.8879 10.2793L73.6516 13.8184ZM85.518 9.66406H82.8578V17H81.3871V9.66406H78.7504V8.46875H85.518V9.66406ZM88.4957 11.7324H90.2418C90.8668 11.7324 91.4117 11.8398 91.8766 12.0547C92.3414 12.2695 92.6949 12.5742 92.9371 12.9688C93.1793 13.3633 93.3004 13.8203 93.3004 14.3398C93.3004 15.1367 93.0289 15.7773 92.4859 16.2617C91.9469 16.7461 91.2105 16.9922 90.277 17H87.0133V8.46875H88.4957V11.7324ZM88.4957 12.9219V15.8164H90.2359C90.7359 15.8164 91.1246 15.6816 91.402 15.4121C91.6832 15.1387 91.8238 14.7773 91.8238 14.3281C91.8238 13.8984 91.6871 13.5586 91.4137 13.3086C91.1402 13.0586 90.7613 12.9297 90.277 12.9219H88.4957Z" fill="#2C2D2E"/>
</svg>
